<svg xmlns="http://www.w3.org/2000/svg" xmlns:xlink="http://www.w3.org/1999/xlink" width="640" height="360" viewBox="0 0 640 360">
  <defs>
    <rect id="picture-a" width="640" height="360"/>
    <linearGradient id="picture-b" x1="50%" x2="50%" y1="66.013%" y2="1.07%">
      <stop offset="0%" stop-color="#FFF"/>
      <stop offset="100%" stop-color="#ECF5FF"/>
    </linearGradient>
  </defs>
  <g fill="none" fill-rule="evenodd">
    <rect width="640" height="360"/>
    <mask id="picture-c" fill="#fff">
      <use xlink:href="#picture-a"/>
    </mask>
    <use fill="#FFF" xlink:href="#picture-a"/>
    <rect width="641" height="360" fill="url(#picture-b)" mask="url(#picture-c)"/>
    <g transform="translate(120 102)">
      <path fill="#818B91" fill-rule="nonzero" d="M345.861014 44.4315948C345.861014 57.4419513 345.861014 70.4523078 345.861014 83.7081427 344.633621 83.7081427 342.915272 83.7081427 341.442402 83.7081427 341.442402 81.9897937 341.442402 81.00788 341.442402 79.0440526 340.21501 80.2714447 339.233096 81.2533584 338.005704 82.2352721 329.904916 87.6357975 318.858387 82.2352721 317.630995 72.6616136 317.140038 68.9794372 317.385516 65.2972609 319.349344 61.8605629 323.522477 54.2507318 333.341614 52.7778612 339.724053 58.6693434 340.21501 59.1603003 340.705967 59.8967355 341.442402 60.3876924 341.442402 57.6874297 341.442402 54.4962102 341.442402 51.7959475 341.442402 49.3411633 341.442402 46.6409006 341.442402 43.9406379 343.406229 44.1861164 344.388143 44.4315948 345.861014 44.4315948zM332.114222 58.9148218C329.168481 58.9148218 326.959175 59.6512571 324.995347 61.6150845 321.804128 64.806304 321.067693 70.2068293 323.03152 74.625441 325.731783 80.5169232 332.850657 82.2352721 337.760226 78.3076173 340.21501 76.34379 341.442402 73.6435273 341.68788 70.6977862 342.424316 64.0698687 337.269269 58.9148218 332.114222 58.9148218zM241.041726 60.3876924C241.532683 59.8967355 242.02364 59.6512571 242.514597 59.1603003 248.160601 53.0233396 257.979738 53.7597749 262.889306 61.6150845 266.080526 66.524653 265.589569 74.625441 262.152871 79.289531 257.243302 85.9174485 248.651558 86.4084054 242.514597 80.7624016 242.02364 80.5169232 241.532683 79.7804879 241.041726 79.289531 241.041726 83.4626643 241.041726 88.6177112 241.041726 92.545366 239.568856 92.545366 238.341464 92.545366 236.868593 92.545366 236.868593 80.2714447 236.868593 67.9975235 236.868593 55.7236023 238.095985 55.7236023 240.305291 55.7236023 241.041726 55.7236023 241.041726 57.4419513 241.041726 58.423865 241.041726 60.3876924zM260.434522 69.9613509C260.434522 69.2249157 260.434522 68.7339588 260.434522 67.9975235 259.943565 64.0698687 257.979738 60.8786492 254.052083 59.4057787 250.124428 57.9329081 246.442252 58.9148218 243.496511 62.1060413 239.814334 66.0336961 239.568856 71.9251783 242.760075 76.34379 245.705816 80.2714447 250.615385 81.4988369 255.033997 79.5350095 258.961651 77.5711821 260.434522 74.1344841 260.434522 69.9613509zM293.083152 83.7081427C291.610282 83.7081427 289.646454 83.7081427 288.664541 83.7081427 288.664541 82.2352721 288.419062 81.9897937 288.419062 80.7624016 287.19167 81.7443153 285.964278 82.726229 284.491407 83.2171858 281.300188 84.6900564 278.354447 84.9355348 275.163227 83.9536211 270.744616 82.726229 268.044353 79.289531 268.289831 75.1163978 268.53531 71.188743 271.481051 67.9975235 275.899663 67.0156098 279.581839 66.2791746 283.264015 66.2791746 286.946192 67.2610883 287.437149 67.5065667 288.173584 67.7520451 288.910019 67.5065667 289.400976 63.8243903 287.928105 60.8786492 284.491407 59.6512571 281.545666 58.6693434 278.599925 59.1603003 275.654184 59.8967355 274.67227 60.142214 273.690357 60.6331708 272.708443 60.6331708 271.972008 59.4057787 271.726529 58.9148218 271.235573 57.6874297 276.881576 55.2326455 282.52758 54.0052533 288.173584 56.705516 291.119325 58.1783866 293.083152 60.6331708 293.083152 63.8243903 293.083152 70.4523078 293.083152 77.0802252 293.083152 83.7081427zM288.910019 70.9432646C285.473321 69.7158725 282.036623 69.4703941 278.599925 69.7158725 277.372533 69.9613509 276.145141 70.4523078 274.917749 71.188743 271.972008 73.1525704 271.726529 77.5711821 274.67227 79.5350095 278.108968 81.7443153 281.545666 81.4988369 284.982364 79.5350095 288.419062 77.8166605 289.400976 75.1163978 288.910019 70.9432646zM366.481201 55.2326455C374.581989 55.2326455 380.964428 61.6150845 380.964428 69.9613509 380.964428 78.3076173 374.581989 84.6900564 366.235723 84.6900564 357.889456 84.6900564 351.507017 78.0621389 351.752496 69.7158725 351.752496 60.3876924 359.362327 54.7416886 366.481201 55.2326455zM376.545817 69.7158725C376.545817 63.3334335 372.127205 58.9148218 366.235723 58.9148218 360.344241 58.9148218 356.171107 63.5789119 356.171107 69.7158725 356.171107 75.8528331 360.835197 80.7624016 366.72668 80.7624016 372.127205 80.7624016 376.545817 76.0983115 376.545817 69.7158725zM391.52 59.6512571C391.52 65.5427393 391.52 71.188743 391.52 76.8347468 391.52 79.0440526 392.992871 80.0259663 395.202177 80.2714447 395.938612 80.2714447 396.920526 80.2714447 397.656961 80.2714447 398.393396 80.2714447 399.129832 80.0259663 400.111745 79.7804879 400.357224 81.2533584 400.357224 81.9897937 400.357224 82.9717074 397.411483 84.6900564 394.220263 84.9355348 391.029044 83.4626643 388.083303 82.2352721 387.101389 79.5350095 387.101389 76.34379 387.101389 71.6796999 387.101389 67.0156098 387.101389 62.3515198 387.101389 61.3696061 387.101389 60.3876924 387.101389 59.4057787 386.119475 59.4057787 384.401126 59.4057787 383.419212 59.4057787 383.419212 58.1783866 383.419212 56.4600376 383.419212 55.2326455 384.646605 55.2326455 386.119475 55.2326455 387.101389 55.2326455 387.101389 52.7778612 387.101389 50.0775986 387.101389 47.3773359 388.819738 47.3773359 390.04713 47.3773359 391.52 47.3773359 391.52 50.0775986 391.52 52.5323828 391.52 54.987167 394.465742 54.987167 397.166004 54.987167 400.357224 54.987167 400.357224 56.2145592 400.357224 58.1783866 400.357224 59.1603003 397.411483 59.6512571 394.71122 59.6512571 391.52 59.6512571zM300.202027 55.7236023C301.674897 55.7236023 302.902289 55.7236023 304.129681 55.7236023 304.129681 57.6874297 304.129681 59.6512571 304.129681 61.8605629 306.093509 60.142214 307.320901 57.9329081 309.284728 56.9509944 311.248556 55.9690807 313.212383 54.987167 315.667167 55.4781239 315.667167 56.9509944 315.667167 58.1783866 315.667167 59.4057787 315.17621 59.8967355 314.685254 59.8967355 313.948818 59.8967355 309.284728 60.142214 305.357074 64.0698687 304.620638 68.9794372 304.129681 72.6616136 304.37516 76.0983115 304.129681 79.7804879 304.129681 81.00788 304.129681 82.4807506 304.129681 83.7081427 302.902289 83.7081427 301.429419 83.7081427 299.956548 83.7081427 300.202027 74.3799626 300.202027 65.0517824 300.202027 55.7236023z"/>
      <path fill="#3498DB" fill-rule="nonzero" d="M62.5789119 74.625441C62.5789119 74.625441 60.8605629 74.3799626 59.142214 74.3799626 56.4419513 74.3799626 55.4600376 75.3618763 55.4600376 75.3618763 54.7236023 75.8528331 54.2326455 76.8347468 54.2326455 77.8166605 54.2326455 78.5530958 54.4781239 79.0440526 54.7236023 79.5350095 54.9690807 79.7804879 54.9690807 79.7804879 55.4600376 80.2714447 55.4600376 80.2714447 56.6874297 81.2533584 59.142214 81.00788 60.8605629 81.00788 62.5789119 80.5169232 62.5789119 80.5169232L62.5789119 80.5169232 62.5789119 74.625441zM87.6177112 66.7701314C85.8993622 66.7701314 84.6719701 67.5065667 83.9355348 68.7339588 83.444578 69.4703941 83.1990995 70.4523078 82.9536211 71.6796999L92.0363228 71.6796999C92.0363228 70.4523078 91.7908444 69.4703941 91.2998875 68.7339588 90.5634523 67.5065667 89.3360601 66.7701314 87.6177112 66.7701314zM139.16818 66.7701314C137.449831 66.7701314 136.222439 67.2610883 135.486004 68.4884804 134.749569 69.7158725 134.258612 71.4342215 134.258612 73.6435273 134.258612 75.8528331 134.749569 77.5711821 135.486004 78.7985742 136.222439 80.0259663 137.449831 80.5169232 139.16818 80.5169232 140.886529 80.5169232 142.113921 80.0259663 142.850357 78.7985742 143.586792 77.5711821 144.077749 75.8528331 144.077749 73.6435273 144.077749 71.4342215 143.586792 69.7158725 142.850357 68.4884804 142.113921 67.5065667 140.886529 66.7701314 139.16818 66.7701314zM190.227693 66.7701314C188.509344 66.7701314 187.281951 67.5065667 186.545516 68.7339588 186.054559 69.4703941 185.809081 70.4523078 185.563602 71.6796999L194.646304 71.6796999C194.646304 70.4523078 194.400826 69.4703941 193.909869 68.7339588 193.173434 67.5065667 191.946041 66.7701314 190.227693 66.7701314z"/>
      <path fill="#3498DB" fill-rule="nonzero" d="M173.780638,22.0930582 C166.907242,22.0930582 160.279325,23.5659287 154.387843,26.2661914 C147.514447,14.2377486 134.749569,5.89148218 120.266342,5.89148218 C109.219813,5.89148218 99.4006755,10.5555722 92.2818012,17.919925 C84.4264917,7.60983115 72.1525704,0.981913697 58.1603003,0.981913697 C34.3488931,0.981913697 15.201576,20.1292308 15.201576,43.9406379 C15.201576,50.0775986 16.4289681,55.7236023 18.6382739,61.1241276 C7.59174485,67.5065667 0.227392121,79.7804879 0.227392121,93.5272797 C0.227392121,114.147467 16.6744465,130.84 37.0491558,130.84 C39.7494184,130.84 42.2042027,130.594522 44.6589869,130.103565 C50.3049907,145.323227 64.7882177,156.124278 81.9717074,156.124278 C98.4187618,156.124278 112.411032,146.059662 118.547993,131.821914 C123.212083,134.03122 128.36713,135.258612 133.767655,135.258612 C146.778011,135.258612 158.315497,128.139737 164.20698,117.338687 C167.152721,117.829644 170.34394,118.320601 173.53516,118.320601 C199.801351,118.320601 221.157974,96.7184992 221.157974,70.2068293 C221.403452,43.6951595 200.046829,22.0930582 173.780638,22.0930582 Z M47.604728,78.0621389 C47.604728,81.9897937 44.9044653,84.444578 40.2403753,84.444578 C38.0310695,84.444578 35.8217636,84.1990995 33.6124578,82.9717074 C33.121501,82.726229 32.8760226,82.4807506 32.3850657,82.2352721 C32.3850657,82.2352721 32.1395873,81.9897937 32.3850657,81.7443153 L33.3669794,79.289531 C33.6124578,78.7985742 33.8579362,79.0440526 33.8579362,79.0440526 C34.1034147,79.289531 34.3488931,79.289531 34.5943715,79.5350095 C37.2946342,81.2533584 39.7494184,81.2533584 40.4858537,81.2533584 C42.4496811,81.2533584 43.6770732,80.2714447 43.6770732,78.7985742 L43.6770732,78.7985742 C43.6770732,77.3257037 41.7132458,76.5892684 39.50394,76.0983115 L39.0129832,75.8528331 C36.0672421,75.1163978 32.8760226,73.6435273 32.8760226,69.9613509 L32.8760226,69.9613509 C32.8760226,66.2791746 35.8217636,63.8243903 39.9948969,63.8243903 L40.4858537,63.8243903 C42.9406379,63.8243903 45.3954222,64.5608256 46.8682927,65.5427393 C47.1137712,65.5427393 47.1137712,65.7882177 47.1137712,66.0336961 C47.1137712,66.2791746 46.3773359,68.243002 46.1318575,68.4884804 C45.886379,68.9794372 45.6409006,68.7339588 45.6409006,68.7339588 C44.1680301,67.9975235 41.7132458,67.2610883 39.9948969,67.2610883 C38.2765479,67.2610883 37.0491558,68.243002 37.0491558,69.4703941 L37.0491558,69.4703941 C37.0491558,70.9432646 39.0129832,71.6796999 41.222289,72.4161352 L41.7132458,72.6616136 C44.4135085,72.907092 47.604728,74.3799626 47.604728,78.0621389 L47.604728,78.0621389 Z M66.2610883,82.9717074 C66.2610883,82.9717074 65.7701314,83.2171858 65.2791746,83.2171858 C64.7882177,83.2171858 63.3153472,83.7081427 62.087955,83.9536211 C60.8605629,84.1990995 59.3876924,84.1990995 58.1603003,84.1990995 C56.9329081,84.1990995 55.705516,84.1990995 54.7236023,83.9536211 C53.7416886,83.7081427 52.7597749,83.4626643 52.0233396,82.726229 C51.2869044,82.2352721 50.7959475,81.4988369 50.3049907,80.7624016 C49.8140338,80.0259663 49.8140338,79.0440526 49.8140338,77.8166605 C49.8140338,76.5892684 50.0595123,75.6073547 50.5504691,74.8709194 C51.0414259,74.1344841 51.5323828,73.3980489 52.5142965,72.6616136 C53.2507318,72.1706567 54.2326455,71.6796999 55.2145592,71.4342215 C56.1964729,71.188743 57.1783866,70.9432646 58.4057787,70.9432646 C59.142214,70.9432646 59.8786492,70.9432646 60.3696061,70.9432646 C60.3696061,70.9432646 61.3515198,70.9432646 62.5789119,71.188743 L62.5789119,70.6977862 C62.5789119,68.9794372 62.3334335,68.243002 61.5969982,67.7520451 C60.8605629,67.2610883 59.8786492,67.0156098 58.4057787,67.0156098 C58.4057787,67.0156098 55.2145592,67.0156098 52.7597749,68.243002 C52.7597749,68.243002 52.5142965,68.243002 52.5142965,68.243002 C52.5142965,68.243002 52.2688181,68.243002 52.0233396,67.9975235 L51.0414259,65.5427393 C50.7959475,65.2972609 51.0414259,65.0517824 51.0414259,65.0517824 C52.2688181,64.0698687 54.9690807,63.5789119 54.9690807,63.5789119 C55.9509944,63.3334335 57.423865,63.3334335 58.4057787,63.3334335 C60.8605629,63.3334335 63.0698687,63.8243903 64.2972609,65.0517824 C65.7701314,66.2791746 66.2610883,68.243002 66.2610883,70.6977862 L66.2610883,82.4807506 C66.5065667,82.4807506 66.5065667,82.9717074 66.2610883,82.9717074 Z M74.8528331,83.4626643 C74.8528331,83.7081427 74.6073547,83.9536211 74.6073547,83.9536211 L71.1706567,83.9536211 C70.9251783,83.9536211 70.9251783,83.7081427 70.9251783,83.4626643 L70.9251783,55.9690807 C70.9251783,55.7236023 71.1706567,55.4781239 71.1706567,55.4781239 L74.6073547,55.4781239 C74.8528331,55.4781239 74.8528331,55.7236023 74.8528331,55.9690807 L74.8528331,83.4626643 Z M96.209456,74.625441 C96.209456,74.8709194 95.7184992,74.8709194 95.7184992,74.8709194 L82.9536211,74.8709194 C82.9536211,76.8347468 83.444578,78.3076173 84.4264917,79.0440526 C85.4084054,80.0259663 86.8812759,80.5169232 88.8451033,80.5169232 C91.7908444,80.5169232 93.2637149,80.0259663 94.0001502,79.5350095 C94.0001502,79.5350095 94.2456286,79.289531 94.491107,79.7804879 L95.2275423,82.2352721 C95.4730207,82.726229 95.2275423,82.726229 95.2275423,82.9717074 C94.491107,83.4626643 92.5272797,84.1990995 88.8451033,84.1990995 C87.1267543,84.1990995 85.4084054,83.9536211 84.1810132,83.4626643 C82.9536211,82.9717074 81.726229,82.2352721 80.9897937,81.2533584 C80.2533584,80.2714447 79.5169232,79.289531 79.0259663,78.0621389 C78.5350095,76.8347468 78.5350095,75.3618763 78.5350095,73.8890057 C78.5350095,72.4161352 78.7804879,70.9432646 79.0259663,69.7158725 C79.5169232,68.4884804 80.00788,67.2610883 80.7443153,66.2791746 C81.4807506,65.2972609 82.4626643,64.5608256 83.6900564,64.0698687 C84.9174485,63.5789119 86.390319,63.3334335 87.8631896,63.3334335 C89.3360601,63.3334335 90.5634523,63.5789119 91.545366,64.0698687 C92.2818012,64.3153472 93.2637149,65.0517824 94.0001502,66.0336961 C94.491107,66.524653 95.2275423,67.7520451 95.7184992,68.9794372 C96.4549344,71.9251783 96.209456,74.3799626 96.209456,74.625441 Z M100.137111,82.726229 C99.646154,82.4807506 99.4006755,82.2352721 98.9097187,81.9897937 C98.9097187,81.9897937 98.6642403,81.7443153 98.9097187,81.4988369 L99.8916324,79.0440526 C100.137111,78.5530958 100.382589,78.7985742 100.382589,78.7985742 C100.628068,79.0440526 100.873546,79.0440526 101.119025,79.289531 C103.819287,81.00788 106.274071,81.00788 107.010507,81.00788 C108.974334,81.00788 110.201726,80.0259663 110.201726,78.5530958 L110.201726,78.5530958 C110.201726,77.0802252 108.237899,76.34379 106.028593,75.8528331 L105.537636,75.6073547 C102.591895,74.8709194 99.4006755,73.3980489 99.4006755,69.7158725 L99.4006755,69.7158725 C99.4006755,66.0336961 102.346417,63.5789119 106.51955,63.5789119 L107.010507,63.5789119 C109.465291,63.5789119 111.920075,64.3153472 113.392946,65.2972609 C113.638424,65.2972609 113.638424,65.5427393 113.638424,65.7882177 C113.638424,66.0336961 112.901989,67.9975235 112.65651,68.243002 C112.411032,68.7339588 112.165554,68.4884804 112.165554,68.4884804 C110.692683,67.7520451 108.237899,67.0156098 106.51955,67.0156098 C104.801201,67.0156098 103.573809,67.9975235 103.573809,69.2249157 L103.573809,69.2249157 C103.573809,70.6977862 105.537636,71.4342215 107.746942,72.1706567 L108.237899,72.4161352 C111.18364,73.3980489 114.374859,74.625441 114.374859,78.3076173 L114.374859,78.3076173 C114.374859,82.2352721 111.674597,84.6900564 107.010507,84.6900564 C104.555722,84.1990995 102.346417,83.9536211 100.137111,82.726229 Z M129.103565,66.7701314 C129.103565,67.2610883 128.612608,67.2610883 128.612608,67.2610883 L124.439475,67.2610883 L121.493734,83.7081427 C121.248255,85.4264917 120.757298,86.8993622 120.266342,88.1267543 C119.775385,89.3541464 119.284428,90.0905817 118.547993,91.0724954 C117.811557,91.8089307 117.075122,92.2998875 116.093208,92.7908444 C115.111295,93.0363228 114.129381,93.2818012 112.901989,93.2818012 C112.411032,93.2818012 111.674597,93.2818012 110.938161,93.0363228 C110.447205,93.0363228 110.201726,92.7908444 109.710769,92.7908444 C109.465291,92.7908444 109.465291,92.545366 109.465291,92.2998875 C109.465291,92.0544091 110.201726,89.8451033 110.447205,89.5996249 C110.692683,89.3541464 110.938161,89.3541464 110.938161,89.3541464 C111.18364,89.3541464 111.429118,89.5996249 111.674597,89.5996249 C111.920075,89.5996249 112.411032,89.5996249 112.65651,89.5996249 C113.147467,89.5996249 113.638424,89.5996249 114.129381,89.3541464 C114.620338,89.108668 114.865816,88.8631896 115.356773,88.3722327 C115.602252,87.8812759 115.84773,87.390319 116.338687,86.6538838 C116.584165,85.9174485 116.829644,84.6900564 117.075122,83.4626643 L120.020863,67.5065667 L117.075122,67.5065667 C116.829644,67.5065667 116.584165,67.2610883 116.584165,67.0156098 L117.075122,64.3153472 C117.075122,63.8243903 117.566079,63.8243903 117.566079,63.8243903 L120.51182,63.8243903 L120.757298,62.8424766 C121.248255,60.142214 121.984691,58.423865 123.212083,56.9509944 C124.439475,55.7236023 126.403302,54.987167 128.612608,54.987167 C129.349043,54.987167 129.84,54.987167 130.330957,55.2326455 C130.821914,55.2326455 131.067392,55.4781239 131.558349,55.4781239 C131.558349,55.4781239 131.803828,55.7236023 131.803828,55.9690807 L130.821914,58.6693434 C130.821914,58.9148218 130.576435,58.9148218 130.330957,58.9148218 C130.330957,58.9148218 130.085479,58.9148218 129.594522,58.6693434 C129.349043,58.6693434 128.858086,58.6693434 128.612608,58.6693434 C128.121651,58.6693434 127.630694,58.6693434 127.139737,58.9148218 C126.648781,59.1603003 126.403302,59.1603003 126.157824,59.6512571 C125.912345,59.8967355 125.421389,60.3876924 125.17591,61.1241276 C124.684953,62.5969982 124.439475,63.8243903 124.439475,64.0698687 L129.103565,64.0698687 C129.349043,64.0698687 129.594522,64.3153472 129.594522,64.5608256 L129.103565,66.7701314 Z M148.005404,77.8166605 C147.514447,79.0440526 147.02349,80.2714447 146.287055,81.00788 C145.550619,81.9897937 144.568706,82.726229 143.341313,83.2171858 C142.113921,83.7081427 140.886529,83.9536211 139.16818,83.9536211 C137.449831,83.9536211 136.222439,83.7081427 134.995047,83.2171858 C133.767655,82.726229 132.785741,81.9897937 132.049306,81.00788 C131.312871,80.0259663 130.576435,79.0440526 130.330957,77.8166605 C129.84,76.5892684 129.84,75.1163978 129.84,73.6435273 C129.84,72.1706567 130.085479,70.6977862 130.330957,69.4703941 C130.821914,68.243002 131.312871,67.0156098 132.049306,66.2791746 C132.785741,65.2972609 133.767655,64.5608256 134.995047,64.0698687 C136.222439,63.5789119 137.449831,63.3334335 139.16818,63.3334335 C140.641051,63.3334335 142.113921,63.5789119 143.341313,64.0698687 C144.568706,64.5608256 145.550619,65.2972609 146.287055,66.2791746 C147.02349,67.2610883 147.759925,68.243002 148.005404,69.4703941 C148.49636,70.6977862 148.49636,72.1706567 148.49636,73.6435273 C148.49636,75.3618763 148.250882,76.5892684 148.005404,77.8166605 Z M162.734109,67.2610883 C162.734109,67.5065667 162.488631,67.7520451 162.243152,67.5065667 C162.243152,67.5065667 161.506717,67.2610883 160.770282,67.2610883 C160.279325,67.2610883 159.542889,67.2610883 159.051933,67.5065667 C158.560976,67.7520451 157.824541,67.9975235 157.579062,68.4884804 C157.088105,68.9794372 156.842627,69.4703941 156.35167,70.4523078 C156.106192,71.188743 155.860713,72.4161352 155.860713,73.8890057 L155.860713,83.4626643 C155.860713,83.7081427 155.615235,83.9536211 155.369756,83.9536211 L151.933058,83.9536211 C151.68758,83.9536211 151.442101,83.7081427 151.442101,83.4626643 L151.442101,64.3153472 C151.442101,64.0698687 151.68758,63.8243903 151.68758,63.8243903 L154.878799,63.8243903 C155.124278,63.8243903 155.124278,64.0698687 155.124278,64.3153472 L155.124278,65.7882177 C155.615235,65.0517824 156.597148,64.5608256 157.333584,64.0698687 C158.070019,63.8243903 159.051933,63.3334335 160.524803,63.5789119 C161.261238,63.5789119 162.488631,63.8243903 162.734109,63.8243903 C162.734109,63.8243903 162.979587,64.0698687 162.979587,64.3153472 C163.716023,64.806304 162.979587,66.524653 162.734109,67.2610883 Z M179.67212,83.2171858 C178.19925,83.7081427 176.235422,84.1990995 174.271595,84.1990995 C171.080375,84.1990995 168.380113,83.2171858 166.907242,81.4988369 C165.188893,79.5350095 164.452458,77.0802252 164.452458,73.8890057 C164.452458,72.4161352 164.697936,70.9432646 165.188893,69.7158725 C165.67985,68.4884804 166.170807,67.2610883 167.152721,66.524653 C167.889156,65.5427393 168.87107,64.806304 170.098462,64.3153472 C171.325854,63.8243903 172.798724,63.5789119 174.271595,63.5789119 C175.253509,63.5789119 176.235422,63.5789119 177.217336,63.8243903 C178.19925,64.0698687 179.181163,64.3153472 179.67212,64.5608256 C179.67212,64.5608256 179.917599,64.806304 179.917599,65.0517824 C179.67212,66.0336961 179.426642,66.7701314 178.935685,67.7520451 C178.690207,68.243002 178.444728,67.9975235 178.444728,67.9975235 C177.217336,67.5065667 175.989944,67.5065667 174.517073,67.5065667 C172.553246,67.5065667 171.325854,68.243002 170.34394,69.4703941 C169.362026,70.6977862 168.87107,72.4161352 168.87107,74.3799626 C168.87107,76.8347468 169.362026,78.5530958 170.589419,79.5350095 C171.571332,80.5169232 173.044203,81.2533584 175.00803,81.2533584 C175.744465,81.2533584 176.480901,81.2533584 176.971858,81.00788 C177.708293,81.00788 178.19925,80.7624016 178.690207,80.5169232 C178.690207,80.5169232 178.935685,80.2714447 179.181163,80.7624016 L180.163077,83.2171858 C180.163077,82.9717074 179.67212,83.2171858 179.67212,83.2171858 Z M198.819437,74.625441 C198.819437,74.8709194 198.328481,74.8709194 198.328481,74.8709194 L185.563602,74.8709194 C185.563602,76.8347468 186.054559,78.3076173 187.036473,79.0440526 C188.018387,80.0259663 189.491257,80.5169232 191.455085,80.5169232 C194.400826,80.5169232 195.873696,80.0259663 196.610132,79.5350095 C196.610132,79.5350095 196.85561,79.289531 197.101088,79.7804879 L197.837524,82.2352721 C198.083002,82.726229 197.837524,82.726229 197.837524,82.9717074 C197.101088,83.4626643 195.137261,84.1990995 191.455085,84.1990995 C189.736736,84.1990995 188.018387,83.9536211 186.790995,83.4626643 C185.563602,82.9717074 184.33621,82.2352721 183.599775,81.2533584 C182.86334,80.2714447 182.126905,79.289531 181.635948,78.0621389 C181.144991,76.8347468 181.144991,75.3618763 181.144991,73.8890057 C181.144991,72.4161352 181.390469,70.9432646 181.635948,69.7158725 C182.126905,68.4884804 182.617861,67.2610883 183.354297,66.2791746 C184.090732,65.2972609 185.072646,64.5608256 186.300038,64.0698687 C187.52743,63.5789119 189.0003,63.3334335 190.473171,63.3334335 C191.946041,63.3334335 193.173434,63.5789119 194.155347,64.0698687 C194.891783,64.3153472 195.873696,65.0517824 196.610132,66.0336961 C197.101088,66.524653 197.837524,67.7520451 198.328481,68.9794372 C199.310394,71.9251783 198.819437,74.3799626 198.819437,74.625441 Z"/>
    </g>
  </g>
</svg>
